# xmcd CD database file
#
# Track frame offsets:
#	150
#	27972
#	54720
#	77300
#	102917
#	127860
#	153027
#	177625
#	205042
#	232847
#	253302
#	293092
#
# Disc length: 4186 seconds
#
# Revision: 1
# Processed by: cddbd v1.5.2PL0 Copyright (c) Steve Scherf et al.
# Submitted via: CDex 1.70beta2
#
DISCID=9410580c
DTITLE=Premo - I cannot say in Words
DYEAR=1999
DGENRE=New Age
TTITLE0=No Words
TTITLE1=I return thanks to my Master
TTITLE2=Om Asatoma Satgamaya
TTITLE3=One Grain of Sand
TTITLE4=My whole Life
TTITLE5=Om Gananantva
TTITLE6=I cannot say in Words
TTITLE7=All I wish for
TTITLE8=Om Namah Shivaya
TTITLE9=Gently I Walk
TTITLE10=Gage Gate Paragate
TTITLE11=No Words
EXTD=YEAR: 1999
EXTT0=
EXTT1=
EXTT2=
EXTT3=
EXTT4=
EXTT5=
EXTT6=
EXTT7=
EXTT8=
EXTT9=
EXTT10=
EXTT11=
PLAYORDER=
